<svg xmlns="http://www.w3.org/2000/svg" xmlns:xlink="http://www.w3.org/1999/xlink">
  <defs>
    <symbol viewBox="0 0 15 15" id="hamburger" height="100%" width="100%">
      <path d="M7.49999 3.09998C7.27907 3.09998 7.09999 3.27906 7.09999 3.49998C7.09999 3.72089 7.27907 3.89998 7.49999 3.89998H14.5C14.7209 3.89998 14.9 3.72089 14.9 3.49998C14.9 3.27906 14.7209 3.09998 14.5 3.09998H7.49999ZM7.49998 5.1C7.27907 5.1 7.09998 5.27908 7.09998 5.5C7.09998 5.72091 7.27907 5.9 7.49998 5.9H14.5C14.7209 5.9 14.9 5.72091 14.9 5.5C14.9 5.27908 14.7209 5.1 14.5 5.1H7.49998ZM7.1 7.5C7.1 7.27908 7.27909 7.1 7.5 7.1H14.5C14.7209 7.1 14.9 7.27908 14.9 7.5C14.9 7.72091 14.7209 7.9 14.5 7.9H7.5C7.27909 7.9 7.1 7.72091 7.1 7.5ZM7.49998 9.1C7.27907 9.1 7.09998 9.27908 7.09998 9.5C7.09998 9.72091 7.27907 9.9 7.49998 9.9H14.5C14.7209 9.9 14.9 9.72091 14.9 9.5C14.9 9.27908 14.7209 9.1 14.5 9.1H7.49998ZM7.09998 11.5C7.09998 11.2791 7.27907 11.1 7.49998 11.1H14.5C14.7209 11.1 14.9 11.2791 14.9 11.5C14.9 11.7209 14.7209 11.9 14.5 11.9H7.49998C7.27907 11.9 7.09998 11.7209 7.09998 11.5ZM2.5 9.25003L5 6.00003H0L2.5 9.25003Z" fill="currentColor" fill-rule="evenodd" clip-rule="evenodd"></path>
    </symbol>
    <symbol viewBox="0 0 15 15" id="arrow-left" height="100%" width="100%">
      <path d="M6.85355 3.14645C7.04882 3.34171 7.04882 3.65829 6.85355 3.85355L3.70711 7H12.5C12.7761 7 13 7.22386 13 7.5C13 7.77614 12.7761 8 12.5 8H3.70711L6.85355 11.1464C7.04882 11.3417 7.04882 11.6583 6.85355 11.8536C6.65829 12.0488 6.34171 12.0488 6.14645 11.8536L2.14645 7.85355C1.95118 7.65829 1.95118 7.34171 2.14645 7.14645L6.14645 3.14645C6.34171 2.95118 6.65829 2.95118 6.85355 3.14645Z" fill="currentColor" fill-rule="evenodd" clip-rule="evenodd"></path>    
    </symbol>
    <symbol viewBox="0 0 15 15" id="arrow-right" height="100%" width="100%">
      <path d="M8.14645 3.14645C8.34171 2.95118 8.65829 2.95118 8.85355 3.14645L12.8536 7.14645C13.0488 7.34171 13.0488 7.65829 12.8536 7.85355L8.85355 11.8536C8.65829 12.0488 8.34171 12.0488 8.14645 11.8536C7.95118 11.6583 7.95118 11.3417 8.14645 11.1464L11.2929 8H2.5C2.22386 8 2 7.77614 2 7.5C2 7.22386 2.22386 7 2.5 7H11.2929L8.14645 3.85355C7.95118 3.65829 7.95118 3.34171 8.14645 3.14645Z" fill="currentColor" fill-rule="evenodd" clip-rule="evenodd"></path>
    </symbol>
    <symbol viewBox="0 0 15 15" id="empty-heart" height="100%" width="100%">
      <path d="M4.89346 2.35248C3.49195 2.35248 2.35248 3.49359 2.35248 4.90532C2.35248 6.38164 3.20954 7.9168 4.37255 9.33522C5.39396 10.581 6.59464 11.6702 7.50002 12.4778C8.4054 11.6702 9.60608 10.581 10.6275 9.33522C11.7905 7.9168 12.6476 6.38164 12.6476 4.90532C12.6476 3.49359 11.5081 2.35248 10.1066 2.35248C9.27059 2.35248 8.81894 2.64323 8.5397 2.95843C8.27877 3.25295 8.14623 3.58566 8.02501 3.88993C8.00391 3.9429 7.98315 3.99501 7.96211 4.04591C7.88482 4.23294 7.7024 4.35494 7.50002 4.35494C7.29765 4.35494 7.11523 4.23295 7.03793 4.04592C7.01689 3.99501 6.99612 3.94289 6.97502 3.8899C6.8538 3.58564 6.72126 3.25294 6.46034 2.95843C6.18109 2.64323 5.72945 2.35248 4.89346 2.35248ZM1.35248 4.90532C1.35248 2.94498 2.936 1.35248 4.89346 1.35248C6.0084 1.35248 6.73504 1.76049 7.20884 2.2953C7.32062 2.42147 7.41686 2.55382 7.50002 2.68545C7.58318 2.55382 7.67941 2.42147 7.79119 2.2953C8.265 1.76049 8.99164 1.35248 10.1066 1.35248C12.064 1.35248 13.6476 2.94498 13.6476 4.90532C13.6476 6.74041 12.6013 8.50508 11.4008 9.96927C10.2636 11.3562 8.92194 12.5508 8.00601 13.3664C7.94645 13.4194 7.88869 13.4709 7.83291 13.5206C7.64324 13.6899 7.3568 13.6899 7.16713 13.5206C7.11135 13.4709 7.05359 13.4194 6.99403 13.3664C6.0781 12.5508 4.73641 11.3562 3.59926 9.96927C2.39872 8.50508 1.35248 6.74041 1.35248 4.90532Z" fill="currentColor" fill-rule="evenodd" clip-rule="evenodd"></path>
    </symbol>
    <symbol viewBox="0 0 15 15" id="full-heart" height="100%" width="100%">
      <path d="M1.35248 4.90532C1.35248 2.94498 2.936 1.35248 4.89346 1.35248C6.25769 1.35248 6.86058 1.92336 7.50002 2.93545C8.13946 1.92336 8.74235 1.35248 10.1066 1.35248C12.064 1.35248 13.6476 2.94498 13.6476 4.90532C13.6476 6.74041 12.6013 8.50508 11.4008 9.96927C10.2636 11.3562 8.92194 12.5508 8.00601 13.3664C7.94645 13.4194 7.88869 13.4709 7.83291 13.5206C7.64324 13.6899 7.3568 13.6899 7.16713 13.5206C7.11135 13.4709 7.05359 13.4194 6.99403 13.3664C6.0781 12.5508 4.73641 11.3562 3.59926 9.96927C2.39872 8.50508 1.35248 6.74041 1.35248 4.90532Z" fill="currentColor" fill-rule="evenodd" clip-rule="evenodd"></path>    
    </symbol>
  </defs>
</svg>
